# xmcd CD database file
#
# Track frame offsets:
#	150
#	25281
#	46917
#	68284
#	84948
#	103206
#	133082
#	148375
#	170033
#	191254
#	210105
#	228949
#	258972
#	287555
#	306393
#	347619
#
# Disc length: 4642 seconds
#
# Revision: 0
# Processed by: cddbd v1.5.2PL0 Copyright (c) Steve Scherf et al.
# Submitted via: CDex 1.70beta2
#
DISCID=de122010
DTITLE=Compilation  - The Rough Guide To Salsa Clandestina
DYEAR=2007
DGENRE=Salsa
TTITLE0=Ray Santiago - It's A Man's World
TTITLE1=Ozomatli - Nadie Te Tira
TTITLE2=Radio Mundial - La Raiz
TTITLE3=Toro Ensamble - Con Todas Las Banderas
TTITLE4=Jose Conde and Ola Fresca - Cafe Con Sangre
TTITLE5=The Spam Allstars - Charanga E-350
TTITLE6=Alex Wilson - Subelo
TTITLE7=Bambazulu - Neptolio
TTITLE8=Los Mocosos - Bandolera Era
TTITLE9=Cuban Cowboys - El Capitan
TTITLE10=Baku - Desde Cuba Hasta Afghanistan
TTITLE11=Horacio 'El Negro' Hernandez and Robby Ameen (feat.Ruben Blades - Sympathy For The Devil -> El Cielo
TTITLE12=Los Amigos Invisibles - Esto Es Lo Que Hay
TTITLE13=Rob Swift (feat.Bob James and D-Styles) - Salsa Scratch
TTITLE14=Roberto Rodriguez (feat.Irving Fields) - Wolfie's Corner (Remix)
TTITLE15=Data
EXTD=YEAR: 2007
EXTT0=
EXTT1=
EXTT2=
EXTT3=
EXTT4=
EXTT5=
EXTT6=
EXTT7=
EXTT8=
EXTT9=
EXTT10=
EXTT11=
EXTT12=
EXTT13=
EXTT14=
EXTT15=
PLAYORDER=
